<svg xmlns="http://www.w3.org/2000/svg" viewBox="0 0 157.32 24"><g data-name="レイヤー 2"><g data-name="レイヤー 1"><path d="M116.93 9.06h9.19a1 1 0 00.8-.34 1.9 1.9 0 000-1.93 1 1 0 00-.8-.34h-9.19a1 1 0 00-.81.34 1.9 1.9 0 000 1.93 1 1 0 00.81.34zm-62.17-4A1.65 1.65 0 0052.9 7v10.19a1.86 1.86 0 103.71 0V7a1.65 1.65 0 00-1.85-1.9zm14.76 10.76h-6.1l6.86-7.52a1.88 1.88 0 00.58-1.24 1.45 1.45 0 00-1.52-1.62h-8.82A1.38 1.38 0 0059 6.88a1.39 1.39 0 001.49 1.45h5.36l-7 7.6a1.88 1.88 0 00-.48 1.34 1.49 1.49 0 001.65 1.45h9.45a1.45 1.45 0 100-2.9zM30.23 5.12a3.86 3.86 0 00-3.89 2.34h-.05v-.6a1.54 1.54 0 00-1.68-1.76c-1.14 0-1.67.62-1.67 1.76v15.28A1.7 1.7 0 0024.77 24a1.7 1.7 0 001.86-1.86v-4.95h.05a4 4 0 003.66 1.88c3.91 0 5.71-3.33 5.71-6.89 0-4.8-2.72-7.06-5.82-7.06zm-.82 11c-2.26 0-3-2.2-3-4.11 0-2.11.81-4 3-4 2 .05 2.95 1.85 2.95 4 0 1.75-.59 4.14-2.95 4.14zm20.73-7.19c0-2.67-2.47-3.82-6-3.82-3.81 0-5.9 1.89-5.9 3.36a1.47 1.47 0 001.56 1.42c1.47 0 1.55-2 4.29-2 1.24 0 2.33.45 2.33 1.52s-.7 1.27-1.6 1.37l-2.26.22c-2.84.33-5.18 1.19-5.18 4.26a4 4 0 004.2 3.79 6.4 6.4 0 005.08-2.16 2 2 0 002.18 2.16 1.56 1.56 0 001.68-1.42 13.47 13.47 0 01-.38-2.49zm-3.72 5c0 1.38-1.25 2.69-3.28 2.69-1.27 0-2-.68-2-1.52 0-1.12.84-1.6 2.39-1.83l1.35-.2a3.54 3.54 0 001.6-.6zm44.07-6H99a1 1 0 00.81-.34 1.9 1.9 0 000-1.93 1 1 0 00-.81-.33h-8.5a1.1 1.1 0 00-.8.34 1.88 1.88 0 000 1.94 1.1 1.1 0 00.79.33zM54.76 0a1.93 1.93 0 101.93 1.93A1.92 1.92 0 0054.76 0zM142 8.87a1.54 1.54 0 00-1.09-.45 1.08 1.08 0 00-.67.2 2.59 2.59 0 00-.56.63 14.1 14.1 0 01-2.31 2.9 15.39 15.39 0 01-6.11 3.32 3.42 3.42 0 01-.6.18 1.74 1.74 0 00-.82.5 1.11 1.11 0 00-.33.86 1.69 1.69 0 00.38 1.14 1.33 1.33 0 001 .46 6.89 6.89 0 002.14-.55 15.06 15.06 0 002.7-1.26 17.56 17.56 0 006.06-5.4 2.67 2.67 0 00.68-1.49 1.38 1.38 0 00-.47-1.04zm13.47-2c0-.15-.08-.44-.68-1.38-.3-.47-.61-.7-.93-.7a1 1 0 00-1 .85 1.38 1.38 0 00.25.5 6.11 6.11 0 00.35.53.56.56 0 00.05.08h-3.78c.27-.64.27-.83.24-.9a1.1 1.1 0 00-.46-.86 1.76 1.76 0 00-1.08-.32 1 1 0 00-.6.14 1.76 1.76 0 00-.46.52 7.8 7.8 0 01-.4.94 11.4 11.4 0 01-2.55 3.56 3.2 3.2 0 01-.54.5 1.09 1.09 0 00-.25.23 1.3 1.3 0 00.13 1.84 1.36 1.36 0 001.74.14 4.71 4.71 0 001-.9 18.13 18.13 0 001.89-2.4H152c.23 0 .25.1.25.19a3.35 3.35 0 01-.17.62 8.86 8.86 0 01-1.08 2.48 10.22 10.22 0 01-5.32 3.84 1.74 1.74 0 00-.77.51 1.23 1.23 0 00-.2.72 1.35 1.35 0 00.39 1 1.24 1.24 0 001 .46 5.26 5.26 0 002.19-.73 11.43 11.43 0 002.71-1.65 11.72 11.72 0 004-6.46 9 9 0 00.3-1.94 2 2 0 00-.2-.79.72.72 0 00.32-.61zm1.71-1.32a7.67 7.67 0 00-.42-.72c-.31-.52-.61-.78-.93-.78a.94.94 0 00-.67.27.8.8 0 00-.34.62 1.47 1.47 0 00.2.54c.08.12.23.27.36.47s.22.38.3.53c.21.44.45.66.75.66a.92.92 0 00.91-1 1.82 1.82 0 00-.21-.58zm-27.4 2.59a5.13 5.13 0 01.65.47c.39.28 1 .73 1.73 1.37a2.14 2.14 0 001.2.5 1.37 1.37 0 001-.46 1.61 1.61 0 00.35-1.02 1.4 1.4 0 00-.5-1 11.43 11.43 0 00-1.8-1.45 4 4 0 00-1.85-.92 1.39 1.39 0 00-1 .45 1.5 1.5 0 00-.45 1 1.23 1.23 0 00.62 1.07zm-2.37 6.54h-11.74a1 1 0 00-.86.34 1.38 1.38 0 00-.26.9 1.5 1.5 0 00.26 1 1.1 1.1 0 00.86.4h11.69a1.07 1.07 0 00.86-.4 1.35 1.35 0 00.26-.89 1.56 1.56 0 00-.33-1 1.08 1.08 0 00-.79-.34zM99.16 9H89.07a1.09 1.09 0 00-.8.33 1.41 1.41 0 00-.27 1 1.39 1.39 0 00.33 1 1.08 1.08 0 00.74.33h8.55c.19 0 .3 0 .3.12v.12a.57.57 0 01-.12.26 5.28 5.28 0 01-1.1 1.76 8.74 8.74 0 01-3.54 2.18 6 6 0 00-1 .42 1.07 1.07 0 00-.59 1 1.65 1.65 0 00.39 1.1 1.33 1.33 0 00.91.45 4.08 4.08 0 001.24-.25 7.38 7.38 0 001.5-.72 10.66 10.66 0 004.22-3.8 9.72 9.72 0 00.84-1.93 6 6 0 00.37-1.77 1.42 1.42 0 00-.47-1.16A2.34 2.34 0 0099.16 9zm-14.23-.09c0-2.67-2.46-3.82-6-3.82C75.1 5.09 73 7 73 8.46a1.47 1.47 0 001.55 1.4c1.47 0 1.55-2 4.29-2 1.25 0 2.34.45 2.34 1.52s-.7 1.27-1.6 1.37l-2.22.25c-2.85.33-5.18 1.19-5.18 4.26a4 4 0 004.19 3.79 6.37 6.37 0 005.08-2.16 2 2 0 002.19 2.16 1.55 1.55 0 001.67-1.42 13.47 13.47 0 01-.38-2.49zm-3.71 5c0 1.38-1.25 2.69-3.28 2.69-1.27 0-2.06-.68-2.06-1.52 0-1.12.85-1.6 2.4-1.83l1.34-.2a3.46 3.46 0 001.6-.6zm31.85-3.47h-9.87a1 1 0 00-.81.4 1.9 1.9 0 000 1.93 1 1 0 00.8.4h9.89a.91.91 0 00.8-.4 1.93 1.93 0 000-1.92.91.91 0 00-.81-.39zM8.62 9.18l4 2.32a.59.59 0 010 1l-4 2.33a.59.59 0 01-.89-.51V9.69a.59.59 0 01.89-.51zm9.66-3.39l-7.65-4.42a2 2 0 00-2 0L1 5.79a2 2 0 00-.73.73l3.49 2a1.06 1.06 0 01.42-.42l4.9-2.83a1.11 1.11 0 011.14 0l4.9 2.83a1.15 1.15 0 01.41.41l3.49-2a2 2 0 00-.74-.72z" fill="#97bb3d"/><path d="M0 7.51v8.84a2 2 0 001 1.72l2.6 1.51V9.1a1.2 1.2 0 01.15-.56l-3.49-2a2 2 0 00-.26.97zm9.07 11.06l-2.25-1.3v4.16l1.83 1.06a2 2 0 001 .27v-4a1.25 1.25 0 01-.58-.19z" fill="#34aba4"/><path d="M19 6.52l-3.49 2a1.13 1.13 0 01.15.57v5.66a1.12 1.12 0 01-.56 1l-4.9 2.83a1.1 1.1 0 01-.58.16v4a2 2 0 001-.27l7.65-4.42a2 2 0 001-1.72V7.51a2 2 0 00-.27-.99z" fill="#3d8942"/></g></g></svg>