<svg xmlns="http://www.w3.org/2000/svg" viewBox="0 0 116.28 24"><g data-name="レイヤー 2"><path d="M27.84 5.12A3.85 3.85 0 0024 7.46h-.06v-.6a1.53 1.53 0 00-1.72-1.76c-1.15 0-1.68.62-1.68 1.76v15.28A1.7 1.7 0 0022.38 24a1.7 1.7 0 001.85-1.86v-4.95h.05a4 4 0 003.66 1.88c3.92 0 5.72-3.33 5.72-6.89 0-4.8-2.72-7.06-5.82-7.06zm-.82 11c-2.26 0-3-2.2-3-4.11 0-2.11.81-4 3-4C29 8.05 30 9.85 30 12c0 1.76-.62 4.15-3 4.15zm89-.79a1.17 1.17 0 00-.73-.18.52.52 0 00-.43.24 2.54 2.54 0 00-.3.93.68.68 0 01-.12.24c0-.1-.09-.2-.13-.3l-.12-.37a13.43 13.43 0 00.86-1.35 6 6 0 001-2.45.74.74 0 00-.3-.62.87.87 0 00-.67-.24c-.46 0-.79.3-1 .92a6.44 6.44 0 00-.24.61 7.93 7.93 0 01-.06-1v-1h1.6a.86.86 0 00.61-.25.94.94 0 00.18-.67 1.36 1.36 0 00-.18-.74.82.82 0 00-.61-.25h-1.67V5.61a1.16 1.16 0 000-.32.91.91 0 00-1-.73 1 1 0 00-.74.25 1.39 1.39 0 00-.18.8v.48a.65.65 0 00-.24-.43 1 1 0 00-.44-.12H110v-.25a.71.71 0 00-.25-.61 1.47 1.47 0 00-.79-.19 1.36 1.36 0 00-.74.19.71.71 0 00-.25.61v.25h-.86a.64.64 0 00-.49.18.35.35 0 00-.18-.3.68.68 0 00-.63-.31h-3.67a.71.71 0 00-.61.25 1.2 1.2 0 00-.24.8 1.19 1.19 0 00.18.73.75.75 0 00.49.3v7.62a1 1 0 00-.55.37.78.78 0 00-.19.56 1.34 1.34 0 00.3.86.75.75 0 00.62.37c.2 0 .45-.09.73-.13a10.18 10.18 0 001.42-.3v2a.63.63 0 00.25.55 1.42 1.42 0 00.73.19 1.21 1.21 0 00.74-.19.62.62 0 00.24-.55v-8.26a.69.69 0 00.68.49h4.92a10.66 10.66 0 01.07 1.17 27 27 0 00.3 3.37c-.33.37-.62.68-.86.93v-3.63a1.59 1.59 0 00-.3-1 1.37 1.37 0 00-1-.3h-1.65a1.51 1.51 0 00-1 .3 1.33 1.33 0 00-.3 1v3.81a1.12 1.12 0 001.34 1.35h1.53v.12a1.14 1.14 0 00.3.8.88.88 0 00.68.36 1.5 1.5 0 00.68-.18 3.56 3.56 0 00.86-.74l.24-.24.18-.18a2.11 2.11 0 01.25.55 5.94 5.94 0 00.55.67 1.43 1.43 0 00.86.3 1.07 1.07 0 00.86-.43 4.32 4.32 0 00.6-1.17c.11-.36.22-.73.3-1.1s0-.45.06-.68a.57.57 0 00-.4-.49zm-11.77-.91a3.87 3.87 0 00-.68.12V13h.68zm0-3.26h-.68v-1.1h.68zm0-2.94h-.68v-1h.68zm2.64.61a.69.69 0 00-.68.49V7.14l.24-.24c0 .2.23.34.56.42.08.5.14 1 .18 1.54zm2.39 0h-.43c-.08-.53-.16-1-.24-1.54h.92c-.07.57-.15 1.08-.24 1.57zm2.46 0H111c.09-.49.17-1 .25-1.54a.65.65 0 00.49-.6zm-2.21 7v.05a.17.17 0 01-.19.14h-.47a.18.18 0 01-.14-.19v-.67h.8zm0-2.15h-.8v-.58c0-.16.06-.25.19-.25h.42c.13 0 .19.09.19.25zm-9.7 1.92a18.78 18.78 0 00-.8-1.91.73.73 0 00-.67-.3 1.63 1.63 0 00-.92.25.75.75 0 00-.37.67.73.73 0 00.06.3c0 .17.12.43.24.8a1.69 1.69 0 00.13.49 8.84 8.84 0 01-1.6.3c.24-.86.45-1.7.61-2.52s.3-1.51.5-2.33h2.51a.81.81 0 00.62-.25 1.56 1.56 0 00.18-.79 1.32 1.32 0 00-.18-.8.77.77 0 00-.61-.3h-6a.65.65 0 00-.56.25 1.18 1.18 0 00-.24.79 1.31 1.31 0 00.24.86.67.67 0 00.56.25h1.16c-.24 1-.49 2-.73 3.07-.21.73-.41 1.45-.62 2.15a1 1 0 00-.67.37.92.92 0 00-.25.67 1.27 1.27 0 00.18.74.59.59 0 00.3.3 1 1 0 00.56.12 4.55 4.55 0 001-.12l2.27-.43c.45-.12.88-.24 1.29-.37a.54.54 0 01.06.25c.17.53.47.8.92.8a1.72 1.72 0 001-.3 1 1 0 00.37-.8 2.5 2.5 0 00-.19-.86c-.07-.46-.18-.95-.34-1.32zm14.44-8.12a2.38 2.38 0 00.24.74.56.56 0 00.5.18 1.2 1.2 0 00.79-.25.7.7 0 00.3-.55 1.69 1.69 0 00-.1-.6 3.68 3.68 0 00-.19-.86 2 2 0 00-.36-.74.73.73 0 00-.54-.18 1.09 1.09 0 00-.68.18.72.72 0 00-.3.55 1.15 1.15 0 00.06.37c.06.33.17.74.29 1.19zM92.6 15.34a.85.85 0 00-.6-.24h-1.6v-.6h.8a1.6 1.6 0 001-.25 1.56 1.56 0 00.24-1V9.52a1.56 1.56 0 00-.24-1 1.54 1.54 0 00-1-.25h-.8v-.6h1.48a.81.81 0 00.61-.24 1.28 1.28 0 00.19-.74 1.28 1.28 0 00-.19-.74.73.73 0 00-.61-.24h-1.5V5.3a.62.62 0 00-.24-.55 1 1 0 00-.74-.25 1.11 1.11 0 00-.74.25.67.67 0 00-.24.55v.38h-2a.72.72 0 00-.6.25 1.21 1.21 0 00-.19.74 1.2 1.2 0 00.19.73.69.69 0 00.6.25h2v.6h-.92a1.56 1.56 0 00-1 .24 1.37 1.37 0 00-.3 1v3.69a1.46 1.46 0 00.3 1 1.49 1.49 0 001 .25h.92v.6h-2.15a.62.62 0 00-.55.24 1.23 1.23 0 000 1.48.65.65 0 00.55.24h2.15v1.27a.79.79 0 00.24.6 1.38 1.38 0 00.74.18 1.2 1.2 0 00.74-.18.83.83 0 00.24-.6v-1.2H92a.85.85 0 00.62-.24 1.61 1.61 0 00-.02-1.48zm-2.22-5.55h.25c.24 0 .37.09.37.3v.55h-.62zm0 2.26H91v.65a.33.33 0 01-.37.28h-.25zm-2 .93h-.34a.33.33 0 01-.28-.37v-.56h.62zm0-2.34h-.58v-.55c0-.2.13-.31.37-.31h.25zm5.65-3.38h5a.72.72 0 00.69-.26 1.4 1.4 0 000-1.59.64.64 0 00-.62-.3h-5a.64.64 0 00-.6.3 1.4 1.4 0 000 1.59.69.69 0 00.57.26zM9 3.23A8.9 8.9 0 000 12a8.9 8.9 0 009 8.77A8.92 8.92 0 0018 12a8.91 8.91 0 00-9-8.77zm4.08 14.15a24.94 24.94 0 01-2.21-1.27l-.2-.13c-.94-.6-1.83-1.2-1.83-2.34a2.4 2.4 0 010-.37c.12-.78 1.27-.9 1.35-.9a21.54 21.54 0 012.66.37 7.11 7.11 0 011.8.51.3.3 0 00.26 0 .28.28 0 00.17-.2.5.5 0 000-.21 2 2 0 00-.7-1.41 4.92 4.92 0 00-1.67-1.14 7.74 7.74 0 00-2.66-2.46 5.47 5.47 0 00-1.83-1.14c-2-.81-2.87.07-2.91.1a.21.21 0 000 .1V7a.18.18 0 00.14.1 8 8 0 011.16.31 3.57 3.57 0 00-1.52 1 4.35 4.35 0 00-1 4.39 6.07 6.07 0 002.16 2.88A9.35 9.35 0 017.4 16.8a4.59 4.59 0 011 1.88A6.79 6.79 0 012.09 12 6.82 6.82 0 019 5.3a6.83 6.83 0 016.94 6.7 6.57 6.57 0 01-2.85 5.38zm54-1.56H61l6.88-7.52a2 2 0 00.59-1.24 1.45 1.45 0 00-1.53-1.62h-8.81a1.39 1.39 0 00-1.5 1.44 1.39 1.39 0 001.5 1.45h5.36l-7 7.6a1.89 1.89 0 00-.49 1.34 1.49 1.49 0 001.65 1.45h9.45a1.45 1.45 0 100-2.9zm15.42-6.9c0-2.67-2.47-3.82-6-3.82-3.81 0-5.9 1.89-5.9 3.36a1.47 1.47 0 001.6 1.42c1.47 0 1.55-2 4.29-2 1.25 0 2.34.45 2.34 1.52s-.7 1.27-1.6 1.37L75 11c-2.85.33-5.19 1.19-5.19 4.26A4 4 0 0074 19.05a6.4 6.4 0 005.08-2.16 2 2 0 002.18 2.16 1.56 1.56 0 001.68-1.42 13.47 13.47 0 01-.38-2.49zm-3.72 5c0 1.38-1.25 2.69-3.28 2.69-1.27 0-2.05-.68-2.05-1.52 0-1.12.84-1.6 2.39-1.83l1.35-.2a3.5 3.5 0 001.6-.6zM52.37 0a1.93 1.93 0 101.93 1.93A1.92 1.92 0 0052.37 0zm-4.63 8.92c0-2.67-2.46-3.82-6-3.82-3.81 0-5.89 1.89-5.89 3.36a1.48 1.48 0 001.55 1.42c1.48 0 1.55-2 4.3-2 1.24 0 2.33.45 2.33 1.52s-.7 1.27-1.6 1.37l-2.26.23c-2.84.33-5.18 1.19-5.18 4.26a4 4 0 004.2 3.79 6.37 6.37 0 005.07-2.16 2 2 0 002.19 2.16 1.56 1.56 0 001.68-1.42 13.15 13.15 0 01-.39-2.49zm-3.71 5c0 1.38-1.24 2.69-3.27 2.69-1.27 0-2.06-.68-2.06-1.52 0-1.12.85-1.6 2.4-1.83l1.35-.2a3.54 3.54 0 001.6-.6zm8.34-8.82A1.65 1.65 0 0050.51 7v10.19a1.86 1.86 0 103.71 0V7a1.65 1.65 0 00-1.85-1.9z" fill="#fff" data-name="レイヤー 1"/></g></svg>