<svg xmlns="http://www.w3.org/2000/svg" viewBox="0 0 74.43 24"><g data-name="レイヤー 2"><path d="M16 13.19V3c0-.42.08-.61.55-.61s.7.2.93.78l3.29 9.06a4.64 4.64 0 001.17 1.92 3.5 3.5 0 002.3.51c1.5 0 2.16-.23 2.47-.59a3.14 3.14 0 00.55-2.15V.55c0-.21-.09-.36-.32-.36h-.81c-1.21 0-1.44.36-1.44 1.21v10.08c0 .48-.11.82-.55.82s-.7-.21-.91-.74l-3.32-9A4.83 4.83 0 0018.72.48a3.68 3.68 0 00-2.3-.48 3.43 3.43 0 00-2.34.53c-.42.38-.63 1-.63 2.43v11.1c0 .23.08.38.31.38h.58c1.1 0 1.66-.19 1.66-1.25zm-5.51 4.42a2.55 2.55 0 00-2.28 1.29 2.65 2.65 0 00-.34 1.32 2.48 2.48 0 00.76 1.83 2.55 2.55 0 001.85.75 2.6 2.6 0 001.84-4.45 2.56 2.56 0 00-1.88-.74zm1.85 3.66a2 2 0 01-.76.77 2.22 2.22 0 01-1.07.28 2.09 2.09 0 01-2.07-2.1 2.09 2.09 0 012.08-2.14 2.09 2.09 0 011.06.29 2 2 0 01.77.76 2.14 2.14 0 01.28 1.07 2.09 2.09 0 01-.34 1.07zm9.42-.56a3.29 3.29 0 010 .77 1.2 1.2 0 01-.23.45.94.94 0 01-.37.29 1.12 1.12 0 01-.47.11 1.19 1.19 0 01-.56-.14 1 1 0 01-.42-.33 1.15 1.15 0 01-.17-.48 5 5 0 010-.67v-3h-.49v3a4.52 4.52 0 00.09 1 1.43 1.43 0 00.59.76 1.92 1.92 0 001 .29 1.5 1.5 0 00.94-.29 1.41 1.41 0 00.52-.71 3.56 3.56 0 00.13-1.08v-3h-.5zm51.87-1.22c0-.82-.75-1.17-1.83-1.17s-1.79.57-1.79 1a.46.46 0 00.48.42c.45 0 .47-.62 1.3-.62.38 0 .71.14.71.47s-.26.41-.5.41l-.69.08c-.86.1-1.57.36-1.57 1.29A1.19 1.19 0 0071 22.55a1.91 1.91 0 001.54-.65v.1a.61.61 0 00.67.54.48.48 0 00.51-.43 3.26 3.26 0 01-.12-.76zM72.45 21a.9.9 0 01-1 .82c-.39 0-.63-.21-.63-.46s.26-.49.73-.55l.41-.07a.93.93 0 00.48-.17zm-55.88-3.09a4.86 4.86 0 00-1.57-.18h-1v4.94h1.58a3.2 3.2 0 001.43-.27 2 2 0 00.84-.83 2.65 2.65 0 00.32-1.31 2.78 2.78 0 00-.4-1.49 2.17 2.17 0 00-1.2-.86zm.72 3.52a1.64 1.64 0 01-.88.65 5.19 5.19 0 01-1.42.13h-.58v-4h.35a6.06 6.06 0 011.53.14 1.76 1.76 0 011 .69 2.15 2.15 0 01.35 1.23 2 2 0 01-.35 1.16zM57 18.32a1.17 1.17 0 00-1.19.71v-.18a.49.49 0 000-.12.46.46 0 00-.52-.41c-.34 0-.5.18-.5.53v4.63a.56.56 0 001.12 0V22a1.19 1.19 0 001.11.58c1.19 0 1.73-1 1.73-2.09-.02-1.49-.84-2.17-1.75-2.17zm-.26 3.35c-.68 0-.9-.66-.9-1.25s.25-1.23.9-1.23c.59 0 .89.57.89 1.23s-.23 1.25-.92 1.25zM.53 14.43c1.27.06 2.62.06 4.8.06 2.78 0 3.92 0 4.31-.21a3 3 0 001.16-2 .11.11 0 000-.08.3.3 0 00-.35-.26c-1.27.08-2.75.15-4.8.15H3.43c-.47 0-.63-.09-.63-.6V8.77c0-.34.13-.51.51-.51H8a2.24 2.24 0 001.14-.15A3.14 3.14 0 0010 6.36c0-.28-.18-.36-.41-.36h-6.3c-.33 0-.48-.08-.48-.36V3.08c0-.43.08-.56.55-.58.63 0 1.33-.06 2.37-.06 1.65 0 3.42.08 4.5.12a.37.37 0 00.35-.36c0-.64-.49-1.76-.93-1.93A26.32 26.32 0 005.28.11C3.26.11 2 .15.47.2A.43.43 0 000 .64v13.2a.34.34 0 000 .1.51.51 0 00.53.49zm24.11 3.95a2.12 2.12 0 011.1-.3 2.27 2.27 0 011 .22 2.09 2.09 0 01.77.64l.4-.29a2.42 2.42 0 00-.93-.78 2.71 2.71 0 00-1.25-.27 2.61 2.61 0 00-1.91.74 2.44 2.44 0 00-.76 1.82 2.63 2.63 0 00.63 1.76 2.55 2.55 0 002 .87 2.93 2.93 0 001.31-.25 2.53 2.53 0 00.92-.73l-.39-.29a2.19 2.19 0 01-1.74.81 2.16 2.16 0 01-1.56-.6 2 2 0 01-.62-1.51 2.16 2.16 0 01.29-1.08 2.11 2.11 0 01.74-.76zM6.43 20.22a1.24 1.24 0 00.57-.46 1.28 1.28 0 00.18-.71 1.21 1.21 0 00-.27-.82 1.28 1.28 0 00-.72-.43 5.86 5.86 0 00-1.11-.07h-1v4.94h.49v-2.29h.3l1.77 2.29h.62l-1.8-2.29a2.67 2.67 0 00.97-.16zm-1.86-.32v-1.69h.87a2.29 2.29 0 01.73.09.76.76 0 01.35.29.74.74 0 01.13.45.78.78 0 01-.13.47.82.82 0 01-.37.29 2 2 0 01-.73.09zM74.06.15h-.8a2.48 2.48 0 00-2.47 1.55l-2.58 4.2c-.18.34-.37.7-.58.7s-.47-.45-.68-.78l-2.47-4.23A2.5 2.5 0 0062 .15h-.84c-.32 0-.49.24-.36.51l4.8 8a4.6 4.6 0 01.55 2.47v3c0 .16 0 .31.29.31h2c.38 0 .46-.17.46-.53v-3a3.79 3.79 0 01.53-2.23l4.95-8.1c.15-.26-.07-.43-.32-.43zM2.23 17.8a5.42 5.42 0 00-1.14-.07H.1v4.93h.5v-2.3H1a5.93 5.93 0 001.26-.08 1.28 1.28 0 00.72-.43 1.65 1.65 0 00.21-.42 1.33 1.33 0 00-.96-1.63zm.32 1.72a.82.82 0 01-.37.29 2.06 2.06 0 01-.74.09H.6v-1.69h.87a2.25 2.25 0 01.73.09.84.84 0 01.35 1.21zM31.07 6a1.39 1.39 0 10-1.39-1.39A1.38 1.38 0 0031.07 6zM46.55.15h-10.9a2.81 2.81 0 00-1.39.19 3.15 3.15 0 00-.53 1.82c0 .17.09.23.28.23h3.41c1.33 0 1.48.2 1.48 1.46v10.24c0 .19.08.34.29.34h2.06c.3 0 .4-.15.4-.44V3.93c0-1.37.21-1.54 1.31-1.54h2.43a1.75 1.75 0 001-.15 3 3 0 00.51-1.8c-.01-.2-.09-.29-.35-.29zm-5 20.14A1.63 1.63 0 0041 20a1.17 1.17 0 00.45-1.68 1.1 1.1 0 00-.5-.43 2.17 2.17 0 00-.91-.14h-1v4.94h1.35a1.62 1.62 0 001.17-.41 1.36 1.36 0 00.44-1 1.3 1.3 0 00-.12-.55 1.23 1.23 0 00-.3-.44zm-2-2.08h.59a1.24 1.24 0 01.75.19.65.65 0 01.24.54.86.86 0 01-.14.46.9.9 0 01-.38.29 2.21 2.21 0 01-.76.1h-.3zm1.82 3.54a.83.83 0 01-.41.33 2.1 2.1 0 01-.79.11h-.62v-1.9h.3a4.25 4.25 0 01.87.06 1.14 1.14 0 01.59.34.86.86 0 01.06 1.06zm-12.61.92h2.82v-.48h-2.32v-1.94h2.32v-.49h-2.32v-1.55h2.33v-.48h-2.84zm15.56-2.9l-1.27-2h-.57l1.61 2.58v2.36h.49v-2.4l1.57-2.58h-.59zm11.86-9.46l.88 2.43c.51 1.42 1 1.71 2.18 1.71h.96a.35.35 0 00.2-.45l-1.49-4.14a4.3 4.3 0 01-.41-1.54c0-.29.11-.49.43-.87a5.73 5.73 0 001-3.59c0-1.65-.44-2.58-1.2-3.09S56.9.08 53.83.08c-1.45 0-3.42 0-4.81.12-.19 0-.29.06-.29.29v13.6c0 .24.06.34.29.34h1.91c.4 0 .52-.14.52-.58V9.62c0-.44.13-.52.51-.52h2.56c.99 0 1.32.2 1.66 1.21zm-4.24-3.46c-.42 0-.51-.11-.51-.55V2.78c0-.28.09-.41.32-.43h2.39c1.56 0 2.22.13 2.51.4a2 2 0 01.55 1.68 2.66 2.66 0 01-1 2.33 3.58 3.58 0 01-1.2.09zm-.44 10.89a2.67 2.67 0 102.74 2.67 2.72 2.72 0 00-2.74-2.67zM52.74 22a6.52 6.52 0 01-.68-.38H52c-.29-.19-.55-.37-.55-.71v-.12c0-.23.38-.27.41-.27a7.5 7.5 0 01.81.11 2.72 2.72 0 01.54.15h.08a.1.1 0 00.05-.06v-.06a.61.61 0 00-.21-.43 1.81 1.81 0 00-.5-.33 2.5 2.5 0 00-.81-.74 1.54 1.54 0 00-.59-.35c-.61-.24-.87 0-.87 0a1.4 1.4 0 01.35.1.93.93 0 00-.46.29 1.31 1.31 0 00-.25 1.44 1.84 1.84 0 00.65.88 2.26 2.26 0 01.35.34 1.61 1.61 0 01.3.58 2 2 0 112.31-2 2 2 0 01-.87 1.56zM63 19.49c0-.82-.75-1.17-1.83-1.17s-1.79.57-1.79 1a.46.46 0 00.48.42c.45 0 .47-.62 1.3-.62.38 0 .71.14.71.47s-.21.38-.48.41l-.69.08c-.86.1-1.57.36-1.57 1.29a1.2 1.2 0 001.27 1.13 1.92 1.92 0 001.6-.6v.1a.61.61 0 00.67.54.46.46 0 00.5-.43 3.87 3.87 0 01-.11-.76zM61.88 21a.89.89 0 01-1 .82c-.39 0-.63-.21-.63-.46s.26-.49.73-.55l.41-.07a.93.93 0 00.48-.17zm2.49-2.71a.56.56 0 00-.52.6v3.19a.56.56 0 00.6.52.57.57 0 00.55-.6v-3.2a.57.57 0 00-.63-.52zm-33.3-9.52a1.39 1.39 0 101.38 1.39 1.39 1.39 0 00-1.38-1.39zm37.83 12.8H67l2.09-2.28a.6.6 0 00.17-.38.19.19 0 000-.08.44.44 0 00-.47-.41h-2.63a.17.17 0 00-.1 0 .43.43 0 00-.38.49.42.42 0 00.48.38h1.63l-2.12 2.31a.56.56 0 00-.14.41.46.46 0 00.49.4h3a.44.44 0 00.38-.49.43.43 0 00-.5-.35zm-4.49-4.81a.59.59 0 00-.58.59.58.58 0 00.58.58.59.59 0 00.59-.58.6.6 0 00-.59-.59zm-29.47 1.15a4.89 4.89 0 00-1.61-.18h-1v4.94h1.58a3.2 3.2 0 001.43-.27 2 2 0 00.84-.83 2.65 2.65 0 00.32-1.31 2.7 2.7 0 00-.41-1.49 2.11 2.11 0 00-1.15-.86zm.72 3.52a1.64 1.64 0 01-.88.65 5.19 5.19 0 01-1.42.13h-.58v-4h.35a5.63 5.63 0 011.53.14 1.76 1.76 0 011 .69 2.15 2.15 0 01.34 1.22 2 2 0 01-.34 1.17z" fill="#fff" data-name="レイヤー 1"/></g></svg>