<?xml version="1.0" encoding="utf-8"?>
<!-- Generator: Adobe Illustrator 27.6.1, SVG Export Plug-In . SVG Version: 6.00 Build 0)  -->
<svg version="1.1" id="レイヤー_1" xmlns="http://www.w3.org/2000/svg" xmlns:xlink="http://www.w3.org/1999/xlink" x="0px"
	 y="0px" viewBox="0 0 300 50" style="enable-background:new 0 0 300 50;" xml:space="preserve">
<style type="text/css">
	.st0{fill:#FFFFFF;}
	.st1{fill:none;}
</style>
<g>
	<g>
		<g>
			<path class="st0" d="M18.3,6.7C8.2,6.7,0,14.9,0,25s8.2,18.3,18.3,18.3S36.6,35.2,36.6,25C36.6,14.9,28.4,6.7,18.3,6.7z
				 M26.7,36.2c-1.4-0.7-3.2-1.7-4.5-2.6l-0.4-0.3c-2-1.3-3.8-2.5-3.8-4.9c0-0.2,0-0.5,0.1-0.8c0.2-1.6,2.6-1.8,2.8-1.9
				c0.2,0,2.7,0.2,5.5,0.8c2.8,0.6,3.7,1.1,3.7,1.1c0.2,0.1,0.4,0.1,0.5,0c0.2-0.1,0.3-0.2,0.4-0.4c0,0,0-0.2,0-0.4
				c0-0.6-0.2-1.7-1.5-2.9c-1.6-1.6-3-2.2-3.5-2.4c-0.5-0.7-2.5-3.5-5.5-5.1c-0.6-0.6-1.8-1.5-3.9-2.4c-4.2-1.7-6,0.1-6.1,0.2
				c-0.1,0.1-0.1,0.1-0.1,0.2v0.1c0,0.1,0.2,0.2,0.3,0.2c0,0,0.4,0,2.4,0.7c-1.5,0.4-2.4,1.2-3.2,2l0.1,0.1c-1.4,1.3-3.4,4.7-2,9.2
				c0.9,2.8,2.7,4.5,4.5,6c0.9,0.8,1.7,1.5,2.4,2.3c1.2,1.4,1.7,2.9,2,3.9l0,0C9.8,38.2,4.3,32.3,4.3,25c0-7.7,6.3-14,14-14
				s14,6.3,14,14C32.3,29.6,30.1,33.7,26.7,36.2z"/>
		</g>
	</g>
	<path class="st0" d="M40.1,14.3c0-2.4,1.1-3.7,3.5-3.7c2.3,0,3.5,1.3,3.5,3.7v1.2h0.1c1.3-3.3,4.4-4.9,8.2-4.9
		c6.5,0,12.1,4.7,12.1,14.7c0,7.4-3.8,14.4-11.9,14.4c-3.6,0-6.2-1.4-7.6-3.9h-0.1v10.3c0,2.5-1.5,3.9-3.9,3.9s-3.9-1.3-3.9-3.9
		V14.3z M53.6,16.7c-4.5,0-6.2,4-6.2,8.4c0,4,1.5,8.6,6.2,8.6c4.9,0,6.2-5,6.2-8.6C59.8,20.6,57.8,16.8,53.6,16.7z"/>
	<path class="st0" d="M96.9,31.6c0,3.2,0.8,4,0.8,5.2c0,1.8-1.6,3-3.5,3c-3.3,0-4.5-2.1-4.6-4.5c-3,3.3-6.5,4.5-10.6,4.5
		c-4.4,0-8.7-3-8.7-7.9c0-6.4,4.9-8.2,10.8-8.9l4.7-0.5c1.9-0.2,3.3-0.6,3.3-2.9s-2.3-3.2-4.9-3.2c-5.7,0-5.9,4.2-9,4.2
		c-2,0-3.3-1.4-3.3-3c0-3.1,4.3-7,12.3-7c7.4,0,12.6,2.4,12.6,8L96.9,31.6z M89.2,26c-0.8,0.8-2.4,1.1-3.3,1.2L83,27.7
		c-3.2,0.5-5,1.5-5,3.8c0,1.8,1.6,3.2,4.3,3.2c4.2,0,6.8-2.8,6.8-5.6L89.2,26z"/>
	<path class="st0" d="M106.6,0c2.2,0,4,1.8,4,4s-1.8,4-4,4s-4-1.8-4-4l0,0C102.5,1.8,104.3,0,106.6,0C106.5,0,106.5,0,106.6,0z
		 M102.7,14.5c0-2.1,0.8-3.9,3.9-3.9c3,0,3.9,1.8,3.9,3.9v21.4c0,2.1-0.8,3.9-3.9,3.9s-3.9-1.8-3.9-3.9V14.5z"/>
	<path class="st0" d="M129.8,17.4h-11.2c-1.4,0-3.1-0.8-3.1-3s1.7-3,3.1-3H137c2.1,0,3.2,1.4,3.2,3.4c0,0.8-0.5,1.8-1.2,2.6
		L124.6,33h12.7c1.4,0,3.1,0.8,3.1,3s-1.7,3-3.1,3h-19.7c-2.3,0-3.4-1.5-3.4-3c0-1,0.3-2,1-2.8L129.8,17.4z"/>
	<path class="st0" d="M169.5,31.6c0,3.2,0.8,4,0.8,5.2c0,1.8-1.6,3-3.5,3c-3.3,0-4.5-2.1-4.6-4.5c-3,3.3-6.5,4.5-10.6,4.5
		c-4.4,0-8.7-3-8.7-7.9c0-6.4,4.9-8.2,10.8-8.9l4.7-0.5c1.9-0.2,3.3-0.6,3.3-2.9s-2.3-3.2-4.9-3.2c-5.7,0-5.9,4.2-9,4.2
		c-2,0-3.3-1.4-3.3-3c0-3.1,4.3-7,12.3-7c7.4,0,12.6,2.4,12.6,8L169.5,31.6z M161.8,26c-0.8,0.8-2.4,1.1-3.3,1.2l-2.8,0.4
		c-3.2,0.5-5,1.5-5,3.8c0,1.8,1.6,3.2,4.3,3.2c4.2,0,6.8-2.8,6.8-5.6V26z"/>
	<g>
		<path class="st0" d="M218.4,19.7c-0.8,0-1.5,0.1-2.3,0.4c-0.7,0.3-1.3,0.6-1.9,1.1c-0.6,0.5-1.1,1-1.5,1.7s-0.7,1.4-0.9,2.2
			c-0.2,0.7-0.2,1.4-0.1,2c0.1,0.6,0.3,1.2,0.7,1.6c0.4,0.5,0.8,0.8,1.4,1.1c0.6,0.3,1.2,0.4,2,0.4s1.6-0.1,2.3-0.4s1.4-0.6,1.9-1.1
			c0.6-0.5,1.1-1,1.5-1.7c0.4-0.6,0.7-1.3,0.9-2.1c0.4-1.6,0.2-2.8-0.5-3.8C221.2,20.2,220.1,19.7,218.4,19.7z"/>
		<path class="st0" d="M196.7,26.1c-0.8,0.1-1.5,0.2-2.3,0.4c-0.7,0.2-1.4,0.5-1.9,0.8c-0.6,0.4-0.9,0.9-1.1,1.5
			c-0.1,0.4-0.1,0.8,0,1.1c0.1,0.3,0.3,0.5,0.5,0.7s0.5,0.3,0.9,0.4s0.7,0.1,1.1,0.1c1.5,0,2.8-0.4,3.7-1.1s1.5-1.7,1.8-3l0.2-1
			h-0.9C198.2,26,197.5,26,196.7,26.1z"/>
		<path class="st0" d="M240.6,19c-1.3,0-2.5,0.4-3.5,1.2c-1,0.8-1.7,1.8-2.2,3.1h9.1c0.3-1.3,0.1-2.3-0.5-3.1
			C243,19.4,242,19,240.6,19z"/>
		<path class="st0" d="M184.6,3.1l-9.7,43.8h115.4L300,3.1H184.6z M198,34l0.6-2.5h-0.1c-0.9,1-1.9,1.8-3,2.2
			c-1.1,0.5-2.3,0.7-3.4,0.7c-0.8,0-1.6-0.1-2.3-0.3s-1.3-0.6-1.8-1s-0.9-1-1.1-1.7c-0.2-0.7-0.2-1.4,0-2.3c0.2-1,0.6-1.8,1.1-2.5
			s1.1-1.3,1.8-1.7c0.7-0.5,1.5-0.8,2.3-1.1c0.8-0.3,1.7-0.5,2.5-0.6c0.9-0.1,1.7-0.2,2.6-0.3c0.9,0,1.6-0.1,2.4-0.1h1.1l0.1-0.5
			c0.3-1.1,0.1-2-0.5-2.5c-0.6-0.6-1.5-0.8-2.7-0.8c-0.9,0-1.9,0.2-2.8,0.5c-0.9,0.3-1.7,0.8-2.5,1.4l-1.8-2.3c1.2-1,2.6-1.7,4-2.2
			c1.4-0.4,2.9-0.7,4.3-0.7c1.3,0,2.3,0.1,3.1,0.4c0.8,0.3,1.4,0.7,1.9,1.1s0.8,1,0.9,1.5c0.2,0.6,0.2,1.2,0.2,1.8
			c0,0.6-0.1,1.2-0.2,1.7c-0.1,0.6-0.2,1-0.3,1.5L202,34H198z M224.8,32.4c-0.4,1.6-1,3.1-1.7,4.4s-1.6,2.4-2.7,3.3
			c-1.1,0.9-2.3,1.6-3.7,2.1s-2.9,0.7-4.7,0.7c-1.7,0-3.2-0.2-4.6-0.6c-1.4-0.4-2.6-1.2-3.6-2.3l3.6-3.6c0.7,0.8,1.5,1.5,2.3,1.9
			c0.9,0.4,1.9,0.7,3.2,0.7c1.1,0,2-0.1,2.8-0.4c0.8-0.3,1.5-0.7,2-1.2c0.6-0.5,1-1.1,1.4-1.9c0.4-0.7,0.7-1.5,0.9-2.4l0.3-1.3h-0.1
			c-0.9,0.9-1.9,1.5-3,2c-1.2,0.4-2.3,0.7-3.4,0.7c-1.3,0-2.5-0.2-3.5-0.7s-1.7-1.1-2.3-2c-0.6-0.8-0.9-1.8-1.1-2.9
			c-0.1-1.1-0.1-2.3,0.2-3.6c0.3-1.3,0.8-2.5,1.5-3.7c0.7-1.1,1.5-2.1,2.5-3c1-0.8,2.1-1.5,3.3-2s2.5-0.7,3.9-0.7
			c1.3,0,2.4,0.2,3.3,0.7c1,0.5,1.6,1.3,2,2.4h0.1l0.7-2.7h4.2L224.8,32.4z M248,25.4l-0.3,1.2h-13.6c-0.2,1.3,0.1,2.4,0.8,3.1
			s1.7,1.1,3,1.1c1.1,0,2.1-0.2,3-0.7s1.7-1,2.4-1.7l2.6,2.4c-1.4,1.3-2.7,2.2-4.2,2.8c-1.4,0.5-2.8,0.8-4.3,0.8
			c-1.3,0-2.5-0.2-3.6-0.7c-1.1-0.4-2-1.1-2.6-1.9c-0.7-0.8-1.1-1.8-1.3-3s-0.2-2.4,0.2-3.8c0.3-1.4,0.9-2.7,1.7-3.8
			c0.8-1.2,1.7-2.1,2.8-3c1.1-0.8,2.3-1.5,3.6-1.9s2.6-0.7,4-0.7c1.2,0,2.3,0.2,3.2,0.7c0.9,0.4,1.6,1.1,2.2,1.9
			c0.5,0.8,0.9,1.8,1,3C248.6,22.5,248.4,23.8,248,25.4z M268.4,22.7L265.6,34h-4.5l2.2-9c0.1-0.5,0.2-1,0.3-1.7
			c0.1-0.6,0.1-1.2,0-1.7s-0.3-1-0.7-1.3c-0.4-0.4-0.9-0.5-1.7-0.5c-0.7,0-1.4,0.1-2,0.4c-0.6,0.2-1.1,0.6-1.5,1s-0.8,0.9-1.1,1.4
			c-0.3,0.5-0.5,1.1-0.6,1.7l-2.4,9.7h-4.5l4.4-17.8h4.2l-0.7,2.9h0.1c0.6-0.9,1.5-1.7,2.5-2.3c1-0.7,2.3-1,3.8-1
			c1.2,0,2.2,0.2,2.9,0.6c0.7,0.4,1.3,0.9,1.6,1.6c0.4,0.6,0.6,1.4,0.6,2.2C268.7,20.9,268.6,21.8,268.4,22.7z M285.1,19.9h-4.9
			l-1.9,7.8c-0.2,0.9-0.2,1.6,0,2.1s0.8,0.8,1.8,0.8c0.4,0,0.8,0,1.3-0.1s0.9-0.2,1.2-0.4l-0.9,3.8c-0.5,0.2-1.1,0.4-1.8,0.5
			c-0.7,0.1-1.3,0.1-1.8,0.1c-1.2,0-2.1-0.1-2.8-0.4c-0.7-0.3-1.2-0.7-1.5-1.2s-0.4-1.2-0.4-2s0.2-1.7,0.4-2.8l2-8.2h-3.7l0.9-3.8
			h3.7l1.3-5.2h4.5l-1.3,5.2h4.9L285.1,19.9z"/>
	</g>
</g>
<rect y="0" class="st1" width="300" height="50"/>
</svg>
