<svg xmlns="http://www.w3.org/2000/svg" viewBox="0 0 117.06 24"><g data-name="レイヤー 2"><path d="M27.84 5.12a3.87 3.87 0 00-3.91 2.34h-.05v-.6A1.54 1.54 0 0022.2 5.1c-1.14 0-1.67.62-1.67 1.76v15.28A1.7 1.7 0 0022.38 24a1.7 1.7 0 001.85-1.86v-4.95h.06a3.94 3.94 0 003.65 1.88c3.92 0 5.72-3.33 5.72-6.89 0-4.8-2.72-7.06-5.82-7.06zm-.84 11c-2.26 0-3-2.2-3-4.11 0-2.11.81-4 3-4 2 .04 3 1.84 3 3.99 0 1.76-.63 4.15-3 4.15zm20.71-7.2c0-2.67-2.47-3.82-6-3.82-3.8 0-5.9 1.89-5.9 3.36a1.47 1.47 0 001.57 1.37c1.47 0 1.55-2 4.29-2 1.25 0 2.34.45 2.34 1.52s-.7 1.27-1.6 1.37l-2.27.28c-2.85.33-5.18 1.19-5.18 4.26a4 4 0 004.19 3.79 6.41 6.41 0 005.1-2.16 2 2 0 002.18 2.16 1.56 1.56 0 001.68-1.42 13.47 13.47 0 01-.38-2.49zm-3.7 5c0 1.38-1.25 2.69-3.28 2.69-1.27 0-2.06-.68-2.06-1.52 0-1.12.85-1.6 2.4-1.83l1.35-.2a3.54 3.54 0 001.6-.6zM9 3.23A8.9 8.9 0 000 12a8.9 8.9 0 009 8.77A8.9 8.9 0 0018 12a8.91 8.91 0 00-9-8.77zm4.08 14.15c-.67-.35-1.6-.86-2.21-1.27l-.2-.13c-.94-.6-1.83-1.2-1.83-2.34a2.4 2.4 0 010-.37c.12-.78 1.27-.9 1.35-.9a21.54 21.54 0 012.66.37 7.11 7.11 0 011.8.51.3.3 0 00.4-.12.36.36 0 000-.07.5.5 0 000-.21 2 2 0 00-.7-1.4 4.84 4.84 0 00-1.68-1.15 7.62 7.62 0 00-2.65-2.46 5.62 5.62 0 00-1.8-1.14c-2-.8-2.87.07-2.91.11a.12.12 0 000 .1V7a.16.16 0 00.14.09 8 8 0 011.16.31 3.49 3.49 0 00-1.52 1 4.36 4.36 0 00-1 4.39 6 6 0 002.16 2.88 9.46 9.46 0 011.16 1.12 4.63 4.63 0 011 1.89A6.79 6.79 0 012.1 12 6.81 6.81 0 019 5.32 6.82 6.82 0 0116 12a6.59 6.59 0 01-2.91 5.38zm69.45-8.46c0-2.67-2.47-3.83-6-3.82-3.82 0-5.9 1.89-5.9 3.36a1.48 1.48 0 001.58 1.37c1.47 0 1.55-2 4.29-2 1.24 0 2.34.45 2.34 1.52s-.71 1.27-1.6 1.37L75 11c-2.85.33-5.19 1.19-5.19 4.26A4 4 0 0074 19.05a6.39 6.39 0 005.08-2.16 2 2 0 002.18 2.16 1.56 1.56 0 001.68-1.42 13.47 13.47 0 01-.38-2.49zm-3.72 5c0 1.38-1.24 2.69-3.28 2.69-1.26 0-2-.68-2-1.52 0-1.12.85-1.6 2.4-1.83l1.34-.2a3.54 3.54 0 001.6-.6zm14.26 1.54q0-.33-.57-.9a2.07 2.07 0 00-1.2-.7.49.49 0 00-.38.13v-.51h1.84a.86.86 0 00.64-.26 1.25 1.25 0 00.19-.76 1.53 1.53 0 00-.19-.76.9.9 0 00-.64-.26h-1.84v-.76h2a.76.76 0 00.57-.25 1 1 0 00.19-.7 1.09 1.09 0 00-.19-.7.77.77 0 00-.49-.24h-.76a6.76 6.76 0 00.38-1.47h.13a.81.81 0 00.63-.25 1 1 0 00.19-.7 1.35 1.35 0 00-.19-.76.81.81 0 00-.63-.25h-1.82V5a.73.73 0 00-.26-.63 1.28 1.28 0 00-.82-.26 1.3 1.3 0 00-.83.26.71.71 0 00-.25.63v.39h-1.72a1.12 1.12 0 00-.51.06l-.25.12a.83.83 0 00-.32.77 1.09 1.09 0 00.19.7.69.69 0 00.26.25 1.78 1.78 0 00.57.06h.06a6.91 6.91 0 01.38 1.47h-1.2a.79.79 0 00-.57.25 1.16 1.16 0 00-.19.7 1 1 0 00.19.7.79.79 0 00.57.25h2.54v.78h-2.34a.67.67 0 00-.58.25 1.19 1.19 0 00-.25.77 1.06 1.06 0 00.25.76.67.67 0 00.58.25h1.62a23.82 23.82 0 01-1.78 2.23c-.55.5-.82.9-.82 1.2a1 1 0 00.38.76 1.13 1.13 0 00.82.38 1.36 1.36 0 00.9-.38 8.4 8.4 0 001.2-1.46v2.29a.72.72 0 00.26.63 1.26 1.26 0 00.82.26 1.3 1.3 0 00.83-.26.75.75 0 00.25-.63v-2.7L91 16a1.7 1.7 0 001 .64.87.87 0 00.69-.38 1 1 0 00.38-.79zm-2.84-6.67h-.83c-.08-.43-.18-.91-.31-1.47h1.46a8.2 8.2 0 01-.32 1.47zm9.67.13h-3.68V7.59a.16.16 0 01.19-.14c1-.26 1.87-.51 2.67-.76a4.13 4.13 0 001.27-.51.9.9 0 00.31-.77 1.17 1.17 0 00-.38-.89 1 1 0 00-.76-.39 1 1 0 00-.51.13 23.06 23.06 0 01-4.07 1.33 1.06 1.06 0 00-.9.77A6.52 6.52 0 0094 7.39v3.7a19.9 19.9 0 01-.25 3.53 8.39 8.39 0 01-1 2.6 4.54 4.54 0 00-.26.7 1 1 0 00.38.76 1.54 1.54 0 00.9.32 1.11 1.11 0 00.57-.12 2.36 2.36 0 00.58-.51 8.78 8.78 0 00.82-2.23 16.37 16.37 0 00.32-2.1c.08-.88.13-1.67.13-2.39v-.51h1v7.25a.67.67 0 00.32.63 1.07 1.07 0 00.82.26 1.3 1.3 0 00.83-.26.67.67 0 00.32-.63v-7.24h.44a.71.71 0 00.64-.32 1.5 1.5 0 000-1.65.75.75 0 00-.66-.26zm17 5.21a.77.77 0 00-.64-.25h-5.59v-.57a.77.77 0 00-.13-.51 1.21 1.21 0 00.38.06 1.52 1.52 0 001.08-.76 5.73 5.73 0 00.64-.83 10.68 10.68 0 001.4 1.2 2.91 2.91 0 001.4.57.76.76 0 00.69-.38 1.55 1.55 0 00.32-.95c0-.38-.27-.7-.82-1a5.79 5.79 0 01-1.78-1.4 1.59 1.59 0 00.19-.7c0-.42-.34-.74-1-1h2.8a.75.75 0 00.63-.26 1.29 1.29 0 00.26-.82 1.3 1.3 0 00-.26-.83.75.75 0 00-.63-.26h-5.14v-.28a.89.89 0 00-.32-.76 1.45 1.45 0 00-.95-.25 1.43 1.43 0 00-.9.25.86.86 0 00-.38.76v.38h-5.09a.77.77 0 00-.64.26 1.59 1.59 0 00-.19.83 1.57 1.57 0 00.19.82.77.77 0 00.64.26h2.85a1.06 1.06 0 00-.69.63A8.87 8.87 0 01103 11c-.42.35-.64.64-.64.89a1.23 1.23 0 00.39.9 1.07 1.07 0 00.82.45 1.9 1.9 0 001-.38 10.37 10.37 0 001.72-1.72c.3.21.57.42.83.64a2.07 2.07 0 001.08.5 1 1 0 00.76-.38 1.34 1.34 0 00.32-.9 1.06 1.06 0 00-.25-.63 6.17 6.17 0 00-1-.64 2.46 2.46 0 00-.57-.38 1.54 1.54 0 00.19-.63 1.07 1.07 0 00-.83-1h5.62a1.39 1.39 0 00-.77.77A11.33 11.33 0 01110 11a1.47 1.47 0 00-.44.83 1.53 1.53 0 00.31.64 2.13 2.13 0 00-.44-.07 1.38 1.38 0 00-.9.26.86.86 0 00-.32.7v.57h-5.6a.77.77 0 00-.64.25 1.91 1.91 0 000 1.66.77.77 0 00.64.25h5.59v2.48a.83.83 0 00.31.7 1.43 1.43 0 00.9.25 1.26 1.26 0 00.9-.25.86.86 0 00.32-.7V16h5.6a.77.77 0 00.64-.25 1.6 1.6 0 00.18-.83 1.6 1.6 0 00-.18-.79zm-49.79 1.69H61l6.88-7.52a1.94 1.94 0 00.59-1.24 1.46 1.46 0 00-1.53-1.62h-8.82a1.39 1.39 0 00-1.5 1.44 1.39 1.39 0 001.5 1.45h5.35l-7 7.6a1.84 1.84 0 00-.47 1.34 1.48 1.48 0 001.64 1.45h9.46a1.45 1.45 0 100-2.9zM52.35 5.1A1.65 1.65 0 0050.5 7v10.19a1.85 1.85 0 103.7 0V7a1.65 1.65 0 00-1.85-1.9zm0-5.1a1.93 1.93 0 101.93 1.93A1.92 1.92 0 0052.35 0z" fill="#fff" data-name="レイヤー 1"/></g></svg>